<svg width="19" height="21" viewBox="0 0 19 21" fill="none" xmlns="http://www.w3.org/2000/svg">
<path d="M12.8956 6.43959L6.79221 12.3912C6.68914 12.4883 6.60693 12.6044 6.55038 12.7327C6.49383 12.8611 6.46406 12.9991 6.46281 13.1388C6.46157 13.2785 6.48887 13.4171 6.54313 13.5464C6.59739 13.6757 6.67751 13.7931 6.77883 13.8919C6.88015 13.9907 7.00063 14.0688 7.13325 14.1217C7.26587 14.1746 7.40796 14.2012 7.55124 14.2C7.69452 14.1988 7.83612 14.1698 7.96778 14.1146C8.09943 14.0595 8.2185 13.9794 8.31805 13.8789L14.4225 7.92829C15.0296 7.33633 15.3707 6.53346 15.3707 5.6963C15.3707 4.85914 15.0296 4.05627 14.4225 3.4643C13.8153 2.87234 12.9918 2.53978 12.1332 2.53978C11.2745 2.53978 10.451 2.87234 9.84388 3.4643L3.73945 9.41594C3.22804 9.90213 2.82074 10.4825 2.54118 11.1234C2.26161 11.7642 2.11535 12.4528 2.11088 13.1492C2.1064 13.8456 2.2438 14.536 2.5151 15.1802C2.78641 15.8244 3.18622 16.4097 3.69134 16.9021C4.19646 17.3945 4.79683 17.7842 5.45764 18.0487C6.11845 18.3131 6.82653 18.447 7.54081 18.4425C8.25509 18.438 8.96136 18.2953 9.61863 18.0227C10.2759 17.75 10.8711 17.3528 11.3697 16.8542L17.4742 10.9036L19 12.3912L12.8956 18.3429C12.1941 19.0268 11.3614 19.5693 10.4449 19.9394C9.52836 20.3095 8.54606 20.5 7.55405 20.5C6.56204 20.5 5.57974 20.3095 4.66324 19.9394C3.74674 19.5693 2.91399 19.0268 2.21253 18.3429C1.51107 17.659 0.954644 16.8471 0.575017 15.9535C0.195391 15.0599 -7.39106e-09 14.1022 0 13.135C7.39106e-09 12.1679 0.195391 11.2102 0.575017 10.3166C0.954644 9.42305 1.51107 8.61114 2.21253 7.92724L8.31805 1.97666C9.33564 1.01843 10.6986 0.488213 12.1132 0.500199C13.5279 0.512184 14.8812 1.06542 15.8815 2.04074C16.8819 3.01606 17.4493 4.33544 17.4616 5.7147C17.4739 7.09397 16.9301 8.42276 15.9472 9.41488L9.84388 15.3686C9.54318 15.6617 9.1862 15.8942 8.79334 16.0528C8.40047 16.2114 7.97942 16.293 7.5542 16.293C7.12899 16.2929 6.70795 16.2112 6.31513 16.0525C5.9223 15.8938 5.56538 15.6613 5.26475 15.3681C4.96411 15.0749 4.72565 14.7269 4.56297 14.3438C4.4003 13.9608 4.3166 13.5503 4.31665 13.1357C4.3167 12.7212 4.4005 12.3107 4.56327 11.9277C4.72603 11.5447 4.96458 11.1967 5.26529 10.9036L11.3697 4.95195L12.8956 6.43959Z" fill="url(#paint0_linear_577_3508)"/>
<defs>
<linearGradient id="paint0_linear_577_3508" x1="9.5" y1="0.5" x2="9.5" y2="20.5" gradientUnits="userSpaceOnUse">
<stop stop-color="#D8386B"/>
<stop offset="1" stop-color="#8F50E9"/>
</linearGradient>
</defs>
</svg>
