<svg width="137" height="52" viewBox="0 0 137 52" fill="none" xmlns="http://www.w3.org/2000/svg">
<path opacity="0.9" d="M4.144 20L9.076 7.4H11.488L16.402 20H13.63L11.092 13.214C11.02 13.022 10.93 12.776 10.822 12.476C10.726 12.176 10.624 11.858 10.516 11.522C10.408 11.186 10.306 10.868 10.21 10.568C10.114 10.256 10.042 9.998 9.994 9.794L10.48 9.776C10.408 10.052 10.324 10.34 10.228 10.64C10.144 10.928 10.054 11.228 9.958 11.54C9.862 11.84 9.76 12.134 9.652 12.422C9.544 12.71 9.442 12.992 9.346 13.268L6.808 20H4.144ZM6.43 17.354L7.312 15.176H13.09L13.99 17.354H6.43ZM21.1856 20.18C20.3576 20.18 19.6136 19.97 18.9536 19.55C18.2936 19.118 17.7716 18.536 17.3876 17.804C17.0156 17.06 16.8296 16.202 16.8296 15.23C16.8296 14.282 17.0156 13.436 17.3876 12.692C17.7716 11.948 18.2876 11.36 18.9356 10.928C19.5956 10.496 20.3456 10.28 21.1856 10.28C21.6296 10.28 22.0556 10.352 22.4636 10.496C22.8836 10.628 23.2556 10.814 23.5796 11.054C23.9156 11.294 24.1856 11.564 24.3896 11.864C24.5936 12.152 24.7076 12.458 24.7316 12.782L24.0836 12.89V6.68H26.6396V20H24.2276L24.1196 17.804L24.6236 17.858C24.5996 18.158 24.4916 18.446 24.2996 18.722C24.1076 18.998 23.8496 19.25 23.5256 19.478C23.2136 19.694 22.8536 19.868 22.4456 20C22.0496 20.12 21.6296 20.18 21.1856 20.18ZM21.7616 18.056C22.2416 18.056 22.6616 17.936 23.0216 17.696C23.3816 17.456 23.6636 17.126 23.8676 16.706C24.0716 16.286 24.1736 15.794 24.1736 15.23C24.1736 14.678 24.0716 14.192 23.8676 13.772C23.6636 13.34 23.3816 13.01 23.0216 12.782C22.6616 12.542 22.2416 12.422 21.7616 12.422C21.2816 12.422 20.8616 12.542 20.5016 12.782C20.1536 13.01 19.8776 13.34 19.6736 13.772C19.4816 14.192 19.3856 14.678 19.3856 15.23C19.3856 15.794 19.4816 16.286 19.6736 16.706C19.8776 17.126 20.1536 17.456 20.5016 17.696C20.8616 17.936 21.2816 18.056 21.7616 18.056ZM32.8575 20.18C32.0295 20.18 31.2855 19.97 30.6255 19.55C29.9655 19.118 29.4435 18.536 29.0595 17.804C28.6875 17.06 28.5015 16.202 28.5015 15.23C28.5015 14.282 28.6875 13.436 29.0595 12.692C29.4435 11.948 29.9595 11.36 30.6075 10.928C31.2675 10.496 32.0175 10.28 32.8575 10.28C33.3015 10.28 33.7275 10.352 34.1355 10.496C34.5555 10.628 34.9275 10.814 35.2515 11.054C35.5875 11.294 35.8575 11.564 36.0615 11.864C36.2655 12.152 36.3795 12.458 36.4035 12.782L35.7555 12.89V6.68H38.3115V20H35.8995L35.7915 17.804L36.2955 17.858C36.2715 18.158 36.1635 18.446 35.9715 18.722C35.7795 18.998 35.5215 19.25 35.1975 19.478C34.8855 19.694 34.5255 19.868 34.1175 20C33.7215 20.12 33.3015 20.18 32.8575 20.18ZM33.4335 18.056C33.9135 18.056 34.3335 17.936 34.6935 17.696C35.0535 17.456 35.3355 17.126 35.5395 16.706C35.7435 16.286 35.8455 15.794 35.8455 15.23C35.8455 14.678 35.7435 14.192 35.5395 13.772C35.3355 13.34 35.0535 13.01 34.6935 12.782C34.3335 12.542 33.9135 12.422 33.4335 12.422C32.9535 12.422 32.5335 12.542 32.1735 12.782C31.8255 13.01 31.5495 13.34 31.3455 13.772C31.1535 14.192 31.0575 14.678 31.0575 15.23C31.0575 15.794 31.1535 16.286 31.3455 16.706C31.5495 17.126 31.8255 17.456 32.1735 17.696C32.5335 17.936 32.9535 18.056 33.4335 18.056ZM49.9769 20V13.718L50.1029 14.6L45.0089 7.4H48.1229L52.0109 12.98L50.7869 12.926L54.2969 7.4H57.3029L52.4249 14.798L52.6949 13.574V20H49.9769ZM61.5263 20.18C60.5543 20.18 59.6843 19.97 58.9163 19.55C58.1603 19.118 57.5603 18.53 57.1163 17.786C56.6843 17.042 56.4683 16.19 56.4683 15.23C56.4683 14.27 56.6843 13.424 57.1163 12.692C57.5603 11.948 58.1603 11.36 58.9163 10.928C59.6843 10.496 60.5543 10.28 61.5263 10.28C62.4863 10.28 63.3443 10.496 64.1003 10.928C64.8683 11.36 65.4683 11.948 65.9003 12.692C66.3323 13.424 66.5483 14.27 66.5483 15.23C66.5483 16.19 66.3323 17.042 65.9003 17.786C65.4683 18.53 64.8683 19.118 64.1003 19.55C63.3443 19.97 62.4863 20.18 61.5263 20.18ZM61.5263 17.948C61.9943 17.948 62.4143 17.834 62.7863 17.606C63.1583 17.366 63.4463 17.042 63.6503 16.634C63.8663 16.214 63.9743 15.746 63.9743 15.23C63.9743 14.702 63.8663 14.234 63.6503 13.826C63.4463 13.406 63.1583 13.082 62.7863 12.854C62.4143 12.614 61.9943 12.494 61.5263 12.494C61.0463 12.494 60.6203 12.614 60.2483 12.854C59.8763 13.094 59.5823 13.418 59.3663 13.826C59.1503 14.234 59.0483 14.702 59.0603 15.23C59.0483 15.746 59.1503 16.214 59.3663 16.634C59.5823 17.042 59.8763 17.366 60.2483 17.606C60.6203 17.834 61.0463 17.948 61.5263 17.948ZM71.7474 20.18C71.0514 20.18 70.4514 20.03 69.9474 19.73C69.4554 19.418 69.0714 18.98 68.7954 18.416C68.5314 17.84 68.3994 17.15 68.3994 16.346V10.478H70.9554V15.932C70.9554 16.364 71.0274 16.742 71.1714 17.066C71.3154 17.378 71.5194 17.618 71.7834 17.786C72.0474 17.954 72.3714 18.038 72.7554 18.038C73.0314 18.038 73.2894 17.996 73.5294 17.912C73.7694 17.816 73.9734 17.684 74.1414 17.516C74.3094 17.348 74.4414 17.15 74.5374 16.922C74.6334 16.694 74.6814 16.448 74.6814 16.184V10.478H77.2374V20H74.8074L74.7174 18.038L75.1854 17.822C75.0414 18.266 74.8014 18.668 74.4654 19.028C74.1294 19.388 73.7274 19.67 73.2594 19.874C72.7914 20.078 72.2874 20.18 71.7474 20.18ZM79.8093 20V10.478H82.2753L82.3653 13.538L81.9333 12.908C82.0773 12.416 82.3113 11.972 82.6353 11.576C82.9593 11.168 83.3373 10.85 83.7693 10.622C84.2133 10.394 84.6753 10.28 85.1553 10.28C85.3593 10.28 85.5573 10.298 85.7493 10.334C85.9413 10.37 86.1033 10.412 86.2353 10.46L85.5513 13.268C85.4073 13.196 85.2333 13.136 85.0293 13.088C84.8253 13.028 84.6153 12.998 84.3993 12.998C84.1113 12.998 83.8413 13.052 83.5893 13.16C83.3493 13.256 83.1393 13.4 82.9593 13.592C82.7793 13.772 82.6353 13.988 82.5273 14.24C82.4313 14.492 82.3833 14.768 82.3833 15.068V20H79.8093ZM97.1634 20L92.1414 7.4H95.0034L97.6314 14.222C97.7754 14.594 97.8954 14.924 97.9914 15.212C98.0994 15.488 98.1894 15.752 98.2614 16.004C98.3454 16.244 98.4234 16.484 98.4954 16.724C98.5674 16.952 98.6394 17.204 98.7114 17.48L98.1894 17.498C98.2854 17.126 98.3814 16.784 98.4774 16.472C98.5734 16.148 98.6814 15.812 98.8014 15.464C98.9214 15.116 99.0714 14.702 99.2514 14.222L101.735 7.4H104.579L99.5214 20H97.1634ZM106.269 20V10.478H108.825V20H106.269ZM107.529 8.516C107.037 8.516 106.653 8.396 106.377 8.156C106.101 7.916 105.963 7.574 105.963 7.13C105.963 6.722 106.101 6.392 106.377 6.14C106.665 5.876 107.049 5.744 107.529 5.744C108.021 5.744 108.405 5.87 108.681 6.122C108.957 6.362 109.095 6.698 109.095 7.13C109.095 7.55 108.951 7.886 108.663 8.138C108.387 8.39 108.009 8.516 107.529 8.516ZM117.045 20.18C116.625 20.18 116.217 20.12 115.821 20C115.425 19.88 115.065 19.718 114.741 19.514C114.417 19.298 114.147 19.058 113.931 18.794C113.715 18.518 113.577 18.236 113.517 17.948L114.093 17.732L113.967 19.964H111.555V6.68H114.111V12.71L113.625 12.512C113.697 12.224 113.835 11.948 114.039 11.684C114.243 11.408 114.501 11.168 114.813 10.964C115.125 10.748 115.467 10.58 115.839 10.46C116.211 10.34 116.595 10.28 116.991 10.28C117.819 10.28 118.557 10.496 119.205 10.928C119.853 11.348 120.363 11.93 120.735 12.674C121.119 13.418 121.311 14.27 121.311 15.23C121.311 16.19 121.125 17.042 120.753 17.786C120.381 18.53 119.871 19.118 119.223 19.55C118.587 19.97 117.861 20.18 117.045 20.18ZM116.433 18.002C116.913 18.002 117.327 17.888 117.675 17.66C118.035 17.42 118.317 17.096 118.521 16.688C118.725 16.268 118.827 15.782 118.827 15.23C118.827 14.69 118.725 14.21 118.521 13.79C118.329 13.37 118.053 13.046 117.693 12.818C117.333 12.59 116.913 12.476 116.433 12.476C115.953 12.476 115.533 12.59 115.173 12.818C114.813 13.046 114.531 13.37 114.327 13.79C114.123 14.21 114.021 14.69 114.021 15.23C114.021 15.782 114.123 16.268 114.327 16.688C114.531 17.096 114.813 17.42 115.173 17.66C115.533 17.888 115.953 18.002 116.433 18.002ZM127.763 20.18C126.731 20.18 125.831 19.97 125.063 19.55C124.295 19.13 123.695 18.554 123.263 17.822C122.831 17.09 122.615 16.25 122.615 15.302C122.615 14.57 122.735 13.898 122.975 13.286C123.215 12.674 123.551 12.146 123.983 11.702C124.415 11.246 124.925 10.898 125.513 10.658C126.113 10.406 126.761 10.28 127.457 10.28C128.105 10.28 128.705 10.4 129.257 10.64C129.809 10.868 130.283 11.198 130.679 11.63C131.087 12.05 131.399 12.548 131.615 13.124C131.831 13.7 131.927 14.33 131.903 15.014L131.885 15.806H124.235L123.821 14.24H129.779L129.491 14.564V14.168C129.467 13.844 129.359 13.55 129.167 13.286C128.987 13.022 128.753 12.818 128.465 12.674C128.177 12.53 127.853 12.458 127.493 12.458C126.965 12.458 126.515 12.56 126.143 12.764C125.783 12.968 125.507 13.268 125.315 13.664C125.123 14.06 125.027 14.54 125.027 15.104C125.027 15.68 125.147 16.178 125.387 16.598C125.639 17.018 125.987 17.348 126.431 17.588C126.887 17.816 127.421 17.93 128.033 17.93C128.453 17.93 128.837 17.864 129.185 17.732C129.533 17.6 129.905 17.372 130.301 17.048L131.525 18.758C131.177 19.07 130.793 19.334 130.373 19.55C129.953 19.754 129.521 19.91 129.077 20.018C128.633 20.126 128.195 20.18 127.763 20.18Z" fill="white"/>
<path d="M46.8763 25.0001C39.3763 52.5001 74.3763 18.5001 69.3764 51.0001" stroke="white" stroke-width="1.0241" stroke-linecap="round" stroke-linejoin="bevel" stroke-dasharray="2 2"/>
<path d="M65.4222 47.1737L68.8412 51.0501L73.7362 48.2895" stroke="white" stroke-width="1.5" stroke-linecap="round" stroke-linejoin="bevel"/>
</svg>
