<svg width="16" height="16" viewBox="0 0 16 16" fill="none" xmlns="http://www.w3.org/2000/svg">
<path d="M4.39844 7.59801C4.39844 5.78068 4.39844 4.87201 4.96044 4.30734C5.5231 3.74268 6.42777 3.74268 8.23844 3.74268H10.1584C11.9684 3.74268 12.8738 3.74268 13.4358 4.30734C13.9984 4.87201 13.9984 5.78068 13.9984 7.59801V10.8113C13.9984 12.6287 13.9984 13.5373 13.4358 14.102C12.8738 14.6667 11.9684 14.6667 10.1584 14.6667H8.23844C6.42777 14.6667 5.5231 14.6667 4.96044 14.102C4.39777 13.5373 4.39844 12.6287 4.39844 10.8113V7.59801Z" fill="#D9D8F3"/>
<path opacity="0.5" d="M2.78133 2.11459C2 2.89525 2 4.15259 2 6.66658V7.99992C2 10.5139 2 11.7713 2.78133 12.5519C3.19267 12.9639 3.73667 13.1586 4.528 13.2506C4.4 12.6906 4.4 11.9199 4.4 10.8106V7.59792C4.4 5.78059 4.4 4.87192 4.962 4.30725C5.52467 3.74259 6.42933 3.74259 8.24 3.74259H10.16C11.2613 3.74259 12.0267 3.74259 12.5853 3.86925C12.4933 3.07392 12.2987 2.52792 11.8853 2.11459C11.1047 1.33325 9.84733 1.33325 7.33333 1.33325C4.81933 1.33325 3.562 1.33325 2.78133 2.11459Z" fill="#D9D8F3"/>
</svg>
